<?xml version="1.0" encoding="utf-8"?>
<!-- Generator: Adobe Illustrator 19.1.0, SVG Export Plug-In . SVG Version: 6.00 Build 0)  -->
<svg version="1.1" id="Layer_1" xmlns="http://www.w3.org/2000/svg" xmlns:xlink="http://www.w3.org/1999/xlink" x="0px" y="0px"
	 width="166.3px" height="166.3px" viewBox="0 0 166.3 166.3" enable-background="new 0 0 166.3 166.3" xml:space="preserve">
<g>
	<g>
		<g>
			<path class="bg" fill="#ffffff" d="M4.8,0.8C6.8,0,9,0.1,11.1,0c48.5,0.1,97,0,145.4,0c5.4-0.7,10.3,4.2,9.6,9.6c0.1,48.9,0,97.9,0,146.8
				c0.6,5.4-4.2,10.3-9.7,9.8c-48.9,0-97.9,0-146.8,0c-5.4,0.5-10.3-4.3-9.7-9.8c0-48.9-0.1-97.9,0-146.8C-0.2,6.1,1.7,2.6,4.8,0.8z
				 M37.6,83.1c-0.2,12.1,8.1,23.6,19.5,27.4c10.8,3.6,24.1,0.9,31.2-8.3c5.2-6.5,6.4-15.1,5.9-23.2c-9.2-0.1-18.5-0.1-27.7,0
				c0,3.3,0,6.6,0,9.9c5.5,0.2,11.1,0.1,16.6,0.2c-1.4,4.8-4.6,9.2-9.4,11c-9.3,4.1-21.2-1.3-24.2-11c-3.5-9.4,2.3-20.7,11.8-23.4
				c5.9-2.1,12.1,0.3,17.1,3.3c2.6-2.4,5-5,7.3-7.6c-5.8-4.8-13.2-7.8-20.8-7.1C50.1,54.3,37,68.1,37.6,83.1z M112.2,70.6
				c0,2.8-0.1,5.5-0.1,8.3c-2.8,0-5.5,0-8.3,0.1c0,2.8,0,5.5,0,8.2c2.8,0,5.5,0,8.3,0.1c0,2.8,0,5.5,0.1,8.3c2.7,0,5.5,0,8.2,0
				c0-2.8,0-5.5,0.1-8.3c2.8,0,5.5,0,8.3,0c0-2.8,0-5.5,0-8.2c-2.8,0-5.5,0-8.3-0.1c0-2.8,0-5.5-0.1-8.3
				C117.7,70.6,115,70.6,112.2,70.6z"/>
		</g>
	</g>
	<g>
		<path fill-opacity="0" d="M37.6,83.1C37,68.1,50.1,54.3,65.1,54.1c7.6-0.7,15,2.3,20.8,7.1c-2.4,2.6-4.8,5.2-7.3,7.6
			c-5.1-3.1-11.2-5.4-17.1-3.3c-9.6,2.7-15.4,14-11.8,23.4c2.9,9.8,14.8,15.2,24.2,11c4.8-1.7,8-6.2,9.4-11
			c-5.5-0.1-11.1,0-16.6-0.2c0-3.3,0-6.6,0-9.9c9.2,0,18.5,0,27.7,0c0.6,8.1-0.6,16.7-5.9,23.2c-7.2,9.2-20.4,12-31.2,8.3
			C45.7,106.7,37.3,95.2,37.6,83.1z"/>
		<path fill-opacity="0" d="M112.2,70.6c2.7,0,5.5,0,8.2,0c0,2.8,0,5.5,0.1,8.3c2.8,0,5.5,0,8.3,0.1c0,2.8,0,5.5,0,8.2
			c-2.8,0-5.5,0-8.3,0c0,2.8,0,5.5-0.1,8.3c-2.8,0-5.5,0-8.2,0c0-2.8,0-5.5-0.1-8.3c-2.8,0-5.5,0-8.3-0.1c0-2.8,0-5.5,0-8.2
			c2.8,0,5.5,0,8.3-0.1C112.2,76.1,112.2,73.4,112.2,70.6z"/>
	</g>
</g>
</svg>
