<?xml version="1.0" encoding="utf-8"?>
<!-- Generator: Adobe Illustrator 19.1.0, SVG Export Plug-In . SVG Version: 6.00 Build 0)  -->
<svg version="1.1" id="Layer_1" xmlns="http://www.w3.org/2000/svg" xmlns:xlink="http://www.w3.org/1999/xlink" x="0px" y="0px"
	 width="181.9px" height="161px" viewBox="0 0 181.9 161" enable-background="new 0 0 181.9 161" xml:space="preserve">
<path fill="#FFFFFF" d="M149.1,0H11.9C5.3,0,0,5.2,0,11.6v137.8c0,6.4,5.3,11.6,11.9,11.6h137.2c6.6,0,11.9-5.2,11.9-11.6V11.6
	C161,5.2,155.7,0,149.1,0z M47.8,137.2H23.9V60.4h23.9V137.2z M35.8,49.9C28.2,49.9,22,43.7,22,36c0-7.6,6.2-13.8,13.8-13.8
	c7.6,0,13.8,6.2,13.8,13.8C49.7,43.7,43.5,49.9,35.8,49.9z M137.2,137.2h-23.9V99.9c0-8.9-0.2-20.4-12.4-20.4
	c-12.4,0-14.3,9.7-14.3,19.7v38H62.7V60.4h22.9v10.5H86c3.2-6,11-12.4,22.6-12.4c24.2,0,28.6,15.9,28.6,36.6V137.2z"/>
<g>
	<polygon fill="#FFFFFF" points="166.2,130.1 168.5,130.1 168.5,137.2 169.8,137.2 169.8,130.1 172,130.1 172,128.8 166.2,128.8 	
		"/>
	<polygon fill="#FFFFFF" points="180.1,128.8 177.7,135 175.3,128.8 173.5,128.8 173.5,137.2 174.7,137.2 174.7,130.8 177.3,137.2 
		178.1,137.2 180.7,130.8 180.7,137.2 181.9,137.2 181.9,128.8 	"/>
</g>
</svg>
