<?xml version="1.0" encoding="iso-8859-1"?>
<!-- Generator: Adobe Illustrator 18.1.1, SVG Export Plug-In . SVG Version: 6.00 Build 0)  -->
<svg version="1.1" id="Capa_1" xmlns="http://www.w3.org/2000/svg" xmlns:xlink="http://www.w3.org/1999/xlink" x="0px" y="0px"
	 viewBox="0 0 25.626 25.626" style="enable-background:new 0 0 25.626 25.626;" xml:space="preserve">
<g>
	<path fill="#ffffff" d="M12.812,0C5.736,0,0,5.736,0,12.812c0,5.421,3.372,10.045,8.128,11.917
		c-0.021-0.438-0.018-2.705,1.56-9.474c0.211-2.258-0.082-3.059-0.082-3.997c0-2.129,1.106-2.578,1.752-2.578
		c0.921,0,2.193,0.352,2.193,1.836c0,1.7-1.386,2.147-1.386,2.147s-0.1,0.435-0.215,1.643c-0.115,1.21,0.369,2.52,2.343,2.52
		c3.165,0,3.653-4.393,3.653-5.602c0-1.67-1.224-5.06-5.024-5.06c-5.068,0-5.94,4.54-5.94,5.751c0,0.518,0.143,1.432,0.241,1.823
		c0.957,0.155,0.858,1.465,0.449,1.837c-0.455,0.409-2.793,0.896-2.793-4.236c0-4.887,4.356-7.405,8.179-7.405
		c3.639,0,7.603,2.511,7.603,7.348c0,4.318-3.104,7.718-6.364,7.718c-1.958,0-2.996-1.613-2.996-1.613
		c0,1.51-2.773,6.699-3.128,7.358c1.44,0.561,3.001,0.88,4.64,0.88c7.076,0,12.813-5.736,12.813-12.813S19.888,0,12.812,0z"/>
</g>
</svg>
