<svg xmlns="http://www.w3.org/2000/svg" width="300.78" height="47.34" viewBox="0 0 300.78 47.34"><title>logo</title><path d="M11.92,5.06l1.75,0q.94,0,1.86.11a14.26,14.26,0,0,1,1.72.27A4.36,4.36,0,0,1,18.61,6,6.6,6.6,0,0,1,20.72,8a5.71,5.71,0,0,1,.87,3.22,6.16,6.16,0,0,1-1,3.49,5.73,5.73,0,0,1-2.78,2.18V17a5.82,5.82,0,0,1,3.57,2.12,6.35,6.35,0,0,1,1.24,4,7.54,7.54,0,0,1-.5,2.69,6.75,6.75,0,0,1-1.47,2.32,7.35,7.35,0,0,1-2.41,1.63,8.27,8.27,0,0,1-3.31.62H2.76V5.06Zm.92,10.86a6.63,6.63,0,0,0,4.12-1,3.65,3.65,0,0,0,1.26-3,4.46,4.46,0,0,0-.42-2.12,3,3,0,0,0-1.17-1.2A4.61,4.61,0,0,0,14.91,8a16.42,16.42,0,0,0-2.07-.12H6.12v8Zm1.7,11.57A4.83,4.83,0,0,0,18,26.29,4.39,4.39,0,0,0,19.28,23a4.13,4.13,0,0,0-.46-2.05,3.57,3.57,0,0,0-1.22-1.29,5.12,5.12,0,0,0-1.75-.67,10.65,10.65,0,0,0-2.05-.19H6.12v8.74Z"/><path d="M44.44,5.06V7.89H30.36v8H43.48v2.83H30.36v8.74H44.55v2.83H27V5.06Z"/><path d="M52.15,5.06l13.3,20.49h.07V5.06h3.18V30.32H65L51.83,10h-.07V30.32H48.58V5.06Z"/><path d="M91.6,5.06V7.89H77.52v8H90.65v2.83H77.52v8.74H91.71v2.83H74.16V5.06Z"/><path d="M114.78,5.06l1.75,0q.94,0,1.86.11a14.26,14.26,0,0,1,1.72.27,4.36,4.36,0,0,1,1.36.53A6.6,6.6,0,0,1,123.57,8a5.71,5.71,0,0,1,.87,3.22,6.16,6.16,0,0,1-1,3.49,5.73,5.73,0,0,1-2.78,2.18V17a5.82,5.82,0,0,1,3.57,2.12,6.35,6.35,0,0,1,1.24,4,7.54,7.54,0,0,1-.5,2.69,6.75,6.75,0,0,1-1.47,2.32,7.35,7.35,0,0,1-2.41,1.63,8.27,8.27,0,0,1-3.31.62H105.62V5.06Zm.92,10.86a6.63,6.63,0,0,0,4.12-1,3.65,3.65,0,0,0,1.26-3,4.46,4.46,0,0,0-.42-2.12,3,3,0,0,0-1.17-1.2A4.61,4.61,0,0,0,117.77,8a16.42,16.42,0,0,0-2.07-.12H109v8Zm1.7,11.57a4.83,4.83,0,0,0,3.49-1.2A4.39,4.39,0,0,0,122.14,23a4.13,4.13,0,0,0-.46-2.05,3.57,3.57,0,0,0-1.22-1.29,5.12,5.12,0,0,0-1.75-.67,10.65,10.65,0,0,0-2.05-.19H109v8.74Z"/><path d="M145.56,30.25a4.26,4.26,0,0,1-2.16.46,2.59,2.59,0,0,1-1.86-.65,2.85,2.85,0,0,1-.69-2.14A7.2,7.2,0,0,1,138,30.06a10,10,0,0,1-5.91.37,5.46,5.46,0,0,1-1.93-.88A4.24,4.24,0,0,1,128.84,28a5.3,5.3,0,0,1-.48-2.35,5.37,5.37,0,0,1,.53-2.55,4.63,4.63,0,0,1,1.4-1.61,6.41,6.41,0,0,1,2-.94q1.11-.32,2.28-.53t2.35-.37a13,13,0,0,0,2-.35,3.26,3.26,0,0,0,1.34-.67,1.64,1.64,0,0,0,.5-1.29,3,3,0,0,0-.37-1.59,2.54,2.54,0,0,0-1-.92,3.89,3.89,0,0,0-1.31-.42,9.89,9.89,0,0,0-1.43-.11,6.37,6.37,0,0,0-3.18.73,3.08,3.08,0,0,0-1.38,2.74h-3a6.49,6.49,0,0,1,.71-2.87,5.37,5.37,0,0,1,1.7-1.89,7.13,7.13,0,0,1,2.42-1,12.79,12.79,0,0,1,2.92-.32,17.17,17.17,0,0,1,2.46.18,6.45,6.45,0,0,1,2.21.72A4.24,4.24,0,0,1,143.08,14a4.91,4.91,0,0,1,.6,2.58V26a7,7,0,0,0,.12,1.55q.12.49.83.49a3.65,3.65,0,0,0,.92-.14Zm-4.88-9.38a3.75,3.75,0,0,1-1.49.62q-.92.19-1.93.32t-2,.28a7.51,7.51,0,0,0-1.84.51,3.34,3.34,0,0,0-1.33,1,2.8,2.8,0,0,0-.51,1.78,2.42,2.42,0,0,0,.3,1.25,2.49,2.49,0,0,0,.78.83,3.29,3.29,0,0,0,1.11.46,6.22,6.22,0,0,0,1.34.14,7.16,7.16,0,0,0,2.55-.4,5.37,5.37,0,0,0,1.73-1,4,4,0,0,0,1-1.34,3.38,3.38,0,0,0,.32-1.36Z"/><path d="M150.66,26.24a3.19,3.19,0,0,0,1.11,1.1,5,5,0,0,0,1.56.58,8.89,8.89,0,0,0,1.79.18A11,11,0,0,0,156.6,28,5.41,5.41,0,0,0,158,27.6a2.68,2.68,0,0,0,1.08-.83,2.21,2.21,0,0,0,.42-1.4,2,2,0,0,0-.88-1.77,7.54,7.54,0,0,0-2.21-1q-1.33-.37-2.88-.67a14.86,14.86,0,0,1-2.88-.85,6,6,0,0,1-2.21-1.54,4,4,0,0,1-.88-2.76,4.38,4.38,0,0,1,.62-2.37,5.06,5.06,0,0,1,1.59-1.61,7.32,7.32,0,0,1,2.19-.92,10.12,10.12,0,0,1,2.42-.3,14.42,14.42,0,0,1,2.87.27,6.63,6.63,0,0,1,2.32.92,4.77,4.77,0,0,1,1.61,1.77,6.72,6.72,0,0,1,.71,2.78h-3a3.05,3.05,0,0,0-.46-1.47,3,3,0,0,0-1-.94,4.5,4.5,0,0,0-1.33-.51,6.81,6.81,0,0,0-1.47-.16,8.94,8.94,0,0,0-1.36.11,4.59,4.59,0,0,0-1.26.37,2.52,2.52,0,0,0-.92.71,1.78,1.78,0,0,0-.35,1.15,1.69,1.69,0,0,0,.55,1.29,4.37,4.37,0,0,0,1.4.85,12.17,12.17,0,0,0,1.91.57l2.12.48a22.87,22.87,0,0,1,2.21.6,7.21,7.21,0,0,1,1.91.94,4.59,4.59,0,0,1,1.34,1.47,4.32,4.32,0,0,1,.51,2.19,5.09,5.09,0,0,1-.69,2.76,5.39,5.39,0,0,1-1.8,1.77,7.54,7.54,0,0,1-2.51.94,14.88,14.88,0,0,1-2.78.27,12.86,12.86,0,0,1-2.9-.32,7.11,7.11,0,0,1-2.44-1,5.31,5.31,0,0,1-1.7-1.91,6.62,6.62,0,0,1-.71-2.88h3A3.38,3.38,0,0,0,150.66,26.24Z"/><path d="M179,29.15a8.3,8.3,0,0,1-5.17,1.56A9.4,9.4,0,0,1,170,30a7.49,7.49,0,0,1-2.71-2,8.41,8.41,0,0,1-1.65-3,14.62,14.62,0,0,1-.62-3.86,11,11,0,0,1,.64-3.82,9.14,9.14,0,0,1,1.79-3,8.11,8.11,0,0,1,2.72-2,8.32,8.32,0,0,1,3.45-.71,7.51,7.51,0,0,1,4.05,1,8,8,0,0,1,2.58,2.57,10.16,10.16,0,0,1,1.34,3.4,14.59,14.59,0,0,1,.3,3.5H168.24a7.26,7.26,0,0,0,.28,2.28,5.17,5.17,0,0,0,1,1.91,5.05,5.05,0,0,0,1.8,1.33,6.22,6.22,0,0,0,2.58.5,5.2,5.2,0,0,0,3.13-.88,4.28,4.28,0,0,0,1.61-2.69h3A7.31,7.31,0,0,1,179,29.15Zm-.73-11.75a5.16,5.16,0,0,0-1.1-1.65,5.22,5.22,0,0,0-1.63-1.1,5.15,5.15,0,0,0-2.07-.41,5.24,5.24,0,0,0-2.11.41,4.86,4.86,0,0,0-1.61,1.11,5.34,5.34,0,0,0-1.06,1.65,6.26,6.26,0,0,0-.46,2h10.51A6.18,6.18,0,0,0,178.27,17.41Z"/><path d="M192.69,7.89V5.06h20.2V7.89h-8.42V30.32h-3.36V7.89Z"/><path d="M218.2,5.06v9.66h.07a4,4,0,0,1,1-1.43,5.62,5.62,0,0,1,1.43-1,7.45,7.45,0,0,1,1.66-.55A8.42,8.42,0,0,1,224,11.6a7.94,7.94,0,0,1,3,.5A5,5,0,0,1,229,13.48a5.12,5.12,0,0,1,1,2.1,11.34,11.34,0,0,1,.3,2.71v12h-3V17.94a3.64,3.64,0,0,0-1-2.69,3.69,3.69,0,0,0-2.72-1,6.13,6.13,0,0,0-2.39.42,4.48,4.48,0,0,0-1.68,1.2,5.18,5.18,0,0,0-1,1.82A7.41,7.41,0,0,0,218.2,20V30.32h-3V5.06Z"/><path d="M247.82,29.15a8.31,8.31,0,0,1-5.17,1.56,9.4,9.4,0,0,1-3.8-.71,7.49,7.49,0,0,1-2.71-2,8.41,8.41,0,0,1-1.65-3,14.62,14.62,0,0,1-.62-3.86,11,11,0,0,1,.64-3.82,9.14,9.14,0,0,1,1.79-3,8.11,8.11,0,0,1,2.72-2,8.32,8.32,0,0,1,3.45-.71,7.5,7.5,0,0,1,4.05,1,8,8,0,0,1,2.58,2.57,10.16,10.16,0,0,1,1.34,3.4,14.56,14.56,0,0,1,.3,3.5H237.06a7.26,7.26,0,0,0,.28,2.28,5.17,5.17,0,0,0,1,1.91,5.05,5.05,0,0,0,1.8,1.33,6.22,6.22,0,0,0,2.58.5,5.2,5.2,0,0,0,3.13-.88,4.27,4.27,0,0,0,1.61-2.69h3A7.31,7.31,0,0,1,247.82,29.15Zm-.73-11.75a5.17,5.17,0,0,0-1.1-1.65,5.23,5.23,0,0,0-1.63-1.1,5.15,5.15,0,0,0-2.07-.41,5.24,5.24,0,0,0-2.11.41,4.86,4.86,0,0,0-1.61,1.11,5.34,5.34,0,0,0-1.06,1.65,6.26,6.26,0,0,0-.46,2h10.51A6.19,6.19,0,0,0,247.09,17.41Z"/><path d="M256.7,12v2.69h.07a7.13,7.13,0,0,1,9-2.41,4,4,0,0,1,1.95,2.41,6.39,6.39,0,0,1,2.42-2.3,6.84,6.84,0,0,1,3.31-.81,9.59,9.59,0,0,1,2.49.3,5.19,5.19,0,0,1,1.91.94,4.27,4.27,0,0,1,1.24,1.65,6,6,0,0,1,.44,2.42V30.32h-3v-12a8.56,8.56,0,0,0-.14-1.59,3.27,3.27,0,0,0-.53-1.29,2.65,2.65,0,0,0-1.08-.87,4.29,4.29,0,0,0-1.79-.32,4.73,4.73,0,0,0-3.5,1.27,4.59,4.59,0,0,0-1.27,3.4V30.32h-3v-12A7.75,7.75,0,0,0,265,16.7a3.45,3.45,0,0,0-.55-1.29,2.56,2.56,0,0,0-1-.85,4,4,0,0,0-1.68-.3,4.49,4.49,0,0,0-2.25.53,5.09,5.09,0,0,0-2.37,2.81,4.37,4.37,0,0,0-.27,1.33V30.32h-3V12Z"/><path d="M297,29.15a8.31,8.31,0,0,1-5.17,1.56A9.4,9.4,0,0,1,288,30a7.49,7.49,0,0,1-2.71-2,8.42,8.42,0,0,1-1.65-3,14.66,14.66,0,0,1-.62-3.86,11,11,0,0,1,.64-3.82,9.12,9.12,0,0,1,1.79-3,8.11,8.11,0,0,1,2.72-2,8.32,8.32,0,0,1,3.45-.71,7.5,7.5,0,0,1,4.05,1,8,8,0,0,1,2.58,2.57,10.16,10.16,0,0,1,1.34,3.4,14.61,14.61,0,0,1,.3,3.5H286.24a7.28,7.28,0,0,0,.28,2.28,5.15,5.15,0,0,0,1,1.91,5.05,5.05,0,0,0,1.8,1.33,6.22,6.22,0,0,0,2.58.5,5.2,5.2,0,0,0,3.13-.88,4.28,4.28,0,0,0,1.61-2.69h3A7.31,7.31,0,0,1,297,29.15Zm-.73-11.75a5.16,5.16,0,0,0-1.1-1.65,5.21,5.21,0,0,0-1.63-1.1,5.15,5.15,0,0,0-2.07-.41,5.23,5.23,0,0,0-2.1.41,4.86,4.86,0,0,0-1.61,1.11,5.35,5.35,0,0,0-1.06,1.65,6.25,6.25,0,0,0-.46,2h10.51A6.19,6.19,0,0,0,296.27,17.41Z"/></svg>