<?xml version="1.0" encoding="UTF-8"?>
<svg width="76px" height="84px" viewBox="0 0 76 84" version="1.1" xmlns="http://www.w3.org/2000/svg" xmlns:xlink="http://www.w3.org/1999/xlink">
    <!-- Generator: Sketch 52.6 (67491) - http://www.bohemiancoding.com/sketch -->
    <title>bene logo</title>
    <desc>Created with Sketch.</desc>
    <g id="TS.com" stroke="none" stroke-width="1" fill="none" fill-rule="evenodd">
        <g id="Services_desktop" transform="translate(-102.000000, -2158.000000)">
            <g id="bene" transform="translate(102.000000, 2158.000000)">
                <g id="bene-logo">
                    <g id="Group" transform="translate(40.500000, 0.000000)" fill="#FFB259">
                        <path d="M0,55.9643312 L20.8955224,76.3490446 C18.3880597,78.3286624 15.5671642,79.933758 12.5373134,81.110828 L0,68.8585987 L0,55.9643312 Z" id="Path"></path>
                        <path d="M0,38.7898089 L29.1492537,67.2535032 C27.4776119,69.9286624 25.3880597,72.3898089 23.0895522,74.5299363 L0,51.9515924 L0,38.7898089 Z" id="Path"></path>
                        <path d="M9.45522388,82.1808917 C6.47761194,83.0369427 3.34328358,83.5184713 0.104477612,83.5184713 C0.104477612,83.5184713 0.052238806,83.5184713 0.052238806,83.5184713 C0.052238806,83.5184713 0.052238806,83.5184713 0,83.5184713 L0,72.9248408 L9.45522388,82.1808917 Z" id="Path"></path>
                        <path d="M0.052238806,0.321019108 C0.052238806,1.92611465 0,34.7235669 0,34.7235669 L30.6119403,64.6853503 C33.1716418,59.7095541 35,52.3796178 34.6343284,48.0458599 C34.6343284,26.5375796 13.3731343,14.2318471 0.052238806,0.321019108 Z" id="Path"></path>
                    </g>
                    <g id="Group" transform="translate(0.500000, 0.000000)" fill="#FF9015">
                        <path d="M36.5102941,55.9643312 L14.7455882,76.3490446 C17.3573529,78.3286624 20.2955882,79.933758 23.4514706,81.110828 L36.5102941,68.8585987 L36.5102941,55.9643312 Z" id="Path"></path>
                        <path d="M36.5102941,38.7898089 L6.14852941,67.2535032 C7.88970588,69.9286624 10.0661765,72.3898089 12.4602941,74.5299363 L36.5102941,51.9515924 L36.5102941,38.7898089 Z" id="Path"></path>
                        <path d="M26.6617647,82.1808917 C29.7632353,83.0369427 33.0279412,83.5184713 36.4014706,83.5184713 C36.4014706,83.5184713 36.4558824,83.5184713 36.4558824,83.5184713 C36.4558824,83.5184713 36.4558824,83.5184713 36.5102941,83.5184713 L36.5102941,72.9248408 L26.6617647,82.1808917 Z" id="Path"></path>
                        <path d="M36.4558824,0.321019108 C36.4558824,1.92611465 36.5102941,34.7235669 36.5102941,34.7235669 L4.625,64.6853503 C1.95882353,59.7095541 0.0544117647,52.3796178 0.435294118,48.0458599 C0.435294118,26.5375796 22.5808824,14.2318471 36.4558824,0.321019108 Z" id="Path"></path>
                    </g>
                </g>
            </g>
        </g>
    </g>
</svg>