<!-- Generator: Adobe Illustrator 21.1.0, SVG Export Plug-In  -->
<svg version="1.1"
xmlns="http://www.w3.org/2000/svg" xmlns:xlink="http://www.w3.org/1999/xlink" xmlns:a="http://ns.adobe.com/AdobeSVGViewerExtensions/3.0/"
x="0px" y="0px" width="190.8px" height="30.4px" viewBox="0 0 190.8 30.4" style="enable-background:new 0 0 190.8 30.4;"
xml:space="preserve">
<style type="text/css">
.st0{fill:#50CFE3;}
</style>
<defs>
</defs>
<path id="SynergyGive_3_" d="M134.1,10.7h9.2v11.5c-2.5,0.9-5.3,1.3-8.3,1.3c-3.3,0-5.9-1-7.7-2.9s-2.7-4.6-2.7-8.2
c0-3.5,1-6.1,3-8.1c2-1.9,4.7-2.9,8.3-2.9c1.3,0,2.6,0.1,3.8,0.4s2.2,0.6,3.1,1L141,7.3c-1.5-0.8-3.2-1.1-5.1-1.1
c-1.7,0-3,0.5-3.9,1.6s-1.4,2.7-1.4,4.7s0.4,3.5,1.3,4.6s2,1.6,3.6,1.6c0.9,0,1.7-0.1,2.4-0.2v-3.4h-3.8L134.1,10.7L134.1,10.7z
M153.2,23.2h-5.7V6.6h5.7V23.2z M147.3,2.5c0-0.9,0.2-1.5,0.7-1.9s1.2-0.6,2.3-0.6s1.8,0.2,2.3,0.6s0.7,1.1,0.7,1.9
c0,1.7-1,2.5-3.1,2.5C148.3,5,147.3,4.2,147.3,2.5z M161.5,23.2l-6.3-16.6h6l2.8,9.8c0,0,0,0.1,0.1,0.2s0.1,0.3,0.1,0.4
s0.1,0.3,0.1,0.5s0,0.3,0,0.5h0.1c0-0.5,0.1-1.1,0.3-1.7l2.9-9.8h6l-6.4,16.7H161.5z M183.5,23.5c-2.8,0-4.9-0.7-6.4-2.2
s-2.3-3.6-2.3-6.3c0-2.8,0.7-5,2.1-6.5s3.4-2.2,6.1-2.2c2.5,0,4.4,0.7,5.8,2s2,3.2,2,5.6v2.5h-10.2c0,0.9,0.4,1.7,1,2.2
s1.5,0.8,2.6,0.8c1,0,1.9-0.1,2.8-0.3s1.8-0.5,2.7-1v4.1c-0.9,0.5-1.8,0.8-2.8,1S184.8,23.5,183.5,23.5z M183.2,10.2
c-0.7,0-1.2,0.2-1.7,0.6s-0.7,1.1-0.8,2h4.9c0-0.8-0.2-1.4-0.7-1.9C184.5,10.4,183.9,10.2,183.2,10.2z"/>
<path id="SynergyGive_2_" class="st0" d="M15,16.7c0,1.3-0.3,2.5-1,3.5s-1.6,1.8-2.9,2.4s-2.8,0.9-4.5,0.9
c-1.4,0-2.6-0.1-3.6-0.3s-2-0.5-3-1V17c1.1,0.6,2.3,1,3.4,1.3s2.3,0.5,3.3,0.5c0.9,0,1.5-0.1,1.9-0.4s0.6-0.7,0.6-1.1
c0-0.3-0.1-0.5-0.2-0.8S8.6,16,8.2,15.8s-1.3-0.7-2.8-1.4c-1.4-0.6-2.4-1.2-3.1-1.8S1,11.3,0.7,10.5S0.1,8.8,0.1,7.7
c0-2,0.7-3.5,2.2-4.6s3.4-1.7,5.9-1.7C10.4,1.5,12.7,2,15,3l-1.8,4.5c-2-0.9-3.7-1.4-5.2-1.4c-0.8,0-1.3,0.1-1.6,0.4
c-0.3,0.3-0.5,0.6-0.5,1c0,0.4,0.2,0.8,0.7,1.1s1.6,0.9,3.5,1.8c1.8,0.8,3.1,1.7,3.8,2.7S15,15.3,15,16.7z M16,6.6h6l2.8,9.5
c0.1,0.5,0.2,1.1,0.3,1.8h0.1c0.1-0.7,0.2-1.3,0.4-1.8l2.9-9.6h5.8l-6.6,17.7c-0.8,2.2-1.9,3.8-3.1,4.8s-2.8,1.4-4.8,1.4
c-0.8,0-1.5-0.1-2.3-0.2v-4.5c0.5,0.1,1.1,0.2,1.8,0.2c0.5,0,1-0.1,1.3-0.3s0.7-0.5,1-0.8s0.6-0.9,0.9-1.8L16,6.6z M46.7,23.2
v-9.1c0-1.1-0.2-1.9-0.5-2.5s-0.8-0.8-1.5-0.8c-1,0-1.7,0.4-2.1,1.2s-0.6,2.1-0.6,4v7.3h-5.7V6.6h4.3l0.7,2.1h0.3
c0.5-0.8,1.2-1.4,2-1.8s1.9-0.6,3-0.6c1.8,0,3.3,0.5,4.3,1.6s1.5,2.6,1.5,4.5v10.8H46.7z M64.4,23.5c-2.8,0-4.9-0.7-6.4-2.2
s-2.3-3.6-2.3-6.3c0-2.8,0.7-5,2.1-6.5s3.4-2.2,6.1-2.2c2.5,0,4.4,0.7,5.8,2s2,3.2,2,5.6v2.5H61.4c0,0.9,0.4,1.7,1,2.2
s1.5,0.8,2.6,0.8c1,0,1.9-0.1,2.8-0.3s1.8-0.5,2.7-1v4.1c-0.9,0.5-1.8,0.8-2.8,1S65.7,23.5,64.4,23.5z M64,10.2
c-0.7,0-1.2,0.2-1.7,0.6s-0.7,1.1-0.8,2h4.9c0-0.8-0.2-1.4-0.7-1.9C65.4,10.4,64.8,10.2,64,10.2z M84.9,6.3c0.5,0,1,0,1.4,0.1
l0.3,0.1l-0.5,5.4c-0.5-0.1-1.1-0.2-1.9-0.2c-1.3,0-2.2,0.3-2.7,0.9S80.6,14,80.6,15v8.2h-5.7V6.6h4.3l0.9,2.7h0.3
c0.5-0.9,1.1-1.6,2-2.1S84.1,6.3,84.9,6.3z M104.4,6.6v2.8l-2.3,0.8c0.3,0.6,0.5,1.2,0.5,2c0,1.8-0.6,3.2-1.9,4.2
s-3.1,1.5-5.6,1.5c-0.6,0-1.1,0-1.5-0.1c-0.1,0.3-0.2,0.5-0.2,0.7c0,0.3,0.2,0.5,0.7,0.7s1.1,0.2,1.8,0.2h2.8
c3.7,0,5.6,1.6,5.6,4.7c0,2-0.9,3.6-2.6,4.7s-4.1,1.7-7.3,1.7c-2.4,0-4.2-0.4-5.4-1.2S87,27.3,87,25.8c0-2,1.2-3.3,3.7-3.8
c-0.5-0.2-0.9-0.6-1.3-1s-0.6-1-0.6-1.4c0-0.5,0.1-1,0.4-1.4s0.9-0.9,1.8-1.4c-0.9-0.4-1.5-1-2-1.8s-0.7-1.8-0.7-3
c0-1.8,0.6-3.2,1.8-4.2s3-1.5,5.3-1.5c0.3,0,0.8,0,1.6,0.1c0.7,0.1,1.3,0.1,1.6,0.2H104.4z M91.8,25.3c0,0.5,0.3,0.8,0.8,1.1
s1.2,0.4,2,0.4c1.4,0,2.5-0.2,3.3-0.5s1.3-0.8,1.3-1.3c0-0.4-0.3-0.7-0.8-0.9s-1.2-0.3-2.2-0.3H94c-0.6,0-1.1,0.1-1.6,0.4
S91.8,24.8,91.8,25.3z M93.6,12c0,1.7,0.6,2.5,1.8,2.5c0.5,0,1-0.2,1.3-0.6s0.4-1,0.4-1.9c0-1.7-0.6-2.6-1.7-2.6
C94.2,9.5,93.6,10.3,93.6,12z M104.9,6.6h6l2.8,9.5c0.1,0.5,0.2,1.1,0.3,1.8h0.1c0.1-0.7,0.2-1.3,0.4-1.8l2.9-9.6h5.8l-6.6,17.7
c-0.8,2.2-1.9,3.8-3.1,4.8s-2.8,1.4-4.8,1.4c-0.8,0-1.5-0.1-2.3-0.2v-4.5c0.5,0.1,1.1,0.2,1.8,0.2c0.5,0,1-0.1,1.3-0.3
s0.7-0.5,1-0.8s0.6-0.9,0.9-1.8L104.9,6.6z"/>
</svg>
