<svg xmlns="http://www.w3.org/2000/svg" width="301" height="43.42" viewBox="0 0 301 43.42"><title>logo</title><path d="M3,6.87a33.65,33.65,0,0,1,6.35-.56c3.48,0,5.71.6,7.39,2A5.64,5.64,0,0,1,19,13a6.39,6.39,0,0,1-4.55,5.91V19A6.94,6.94,0,0,1,20,25.76a7.26,7.26,0,0,1-2.28,5.39c-1.88,1.72-4.91,2.52-9.31,2.52A40.57,40.57,0,0,1,3,33.35Zm3.48,11H9.67c3.67,0,5.83-1.92,5.83-4.51C15.5,10.22,13.1,9,9.59,9a14.89,14.89,0,0,0-3.08.24Zm0,12.9A18.54,18.54,0,0,0,9.43,31c3.6,0,6.91-1.32,6.91-5.23,0-3.67-3.16-5.19-7-5.19H6.51Z"/><path d="M26.68,24.4c.08,4.75,3.12,6.71,6.63,6.71a12.73,12.73,0,0,0,5.35-1l.6,2.52a15.66,15.66,0,0,1-6.43,1.2c-6,0-9.51-3.92-9.51-9.75s3.44-10.43,9.07-10.43c6.31,0,8,5.55,8,9.11a13.23,13.23,0,0,1-.12,1.64ZM37,21.89c0-2.24-.92-5.71-4.87-5.71-3.56,0-5.11,3.28-5.39,5.71Z"/><path d="M44.73,19.33c0-2,0-3.64-.16-5.23h3.12l.2,3.2H48a7.11,7.11,0,0,1,6.39-3.64c2.68,0,6.83,1.6,6.83,8.23V33.43H57.68V22.29c0-3.12-1.16-5.71-4.47-5.71a5,5,0,0,0-4.71,3.6,5,5,0,0,0-.24,1.64V33.43H44.73Z"/><path d="M68.86,24.4c.08,4.75,3.12,6.71,6.63,6.71a12.73,12.73,0,0,0,5.35-1l.6,2.52A15.66,15.66,0,0,1,75,33.83c-6,0-9.51-3.92-9.51-9.75s3.44-10.43,9.07-10.43c6.31,0,8,5.55,8,9.11a13.23,13.23,0,0,1-.12,1.64Zm10.31-2.52c0-2.24-.92-5.71-4.87-5.71-3.56,0-5.11,3.28-5.39,5.71Z"/><path d="M114.32,32.55a17.24,17.24,0,0,1-7.11,1.28c-7.59,0-13.3-4.79-13.3-13.62,0-8.43,5.71-14.14,14.06-14.14a14.43,14.43,0,0,1,6.39,1.2l-.84,2.84A12.65,12.65,0,0,0,108.08,9c-6.31,0-10.51,4-10.51,11.1,0,6.59,3.79,10.83,10.35,10.83a13.92,13.92,0,0,0,5.67-1.12Z"/><path d="M118.55,5.07h3.52V17.13h.08a6.51,6.51,0,0,1,2.52-2.48,7.23,7.23,0,0,1,3.59-1c2.6,0,6.75,1.6,6.75,8.27v11.5h-3.52V22.33c0-3.12-1.16-5.75-4.47-5.75a5.05,5.05,0,0,0-4.71,3.52,4.27,4.27,0,0,0-.24,1.68V33.43h-3.52Z"/><path d="M144.63,8.66a2.18,2.18,0,0,1-4.35,0,2.14,2.14,0,0,1,2.2-2.2A2.09,2.09,0,0,1,144.63,8.66Zm-3.92,24.77V14.1h3.52V33.43Z"/><path d="M150.06,5.07h3.52V33.43h-3.52Z"/><path d="M176.18,5.07V28.44c0,1.72,0,3.67.16,5h-3.16L173,30.08h-.08a7.15,7.15,0,0,1-6.59,3.79c-4.67,0-8.27-4-8.27-9.83,0-6.43,4-10.39,8.67-10.39a6.46,6.46,0,0,1,5.83,3h.08V5.07ZM172.67,22a6.24,6.24,0,0,0-.16-1.48,5.17,5.17,0,0,0-5.07-4.07c-3.63,0-5.79,3.2-5.79,7.47,0,3.92,1.92,7.15,5.71,7.15a5.29,5.29,0,0,0,5.15-4.2,6.13,6.13,0,0,0,.16-1.52Z"/><path d="M194.08,9.46h-8.19v-3h19.93v3h-8.23v24h-3.52Z"/><path d="M208.42,5.07h3.52V17.13H212a6.51,6.51,0,0,1,2.52-2.48,7.23,7.23,0,0,1,3.59-1c2.6,0,6.75,1.6,6.75,8.27v11.5h-3.52V22.33c0-3.12-1.16-5.75-4.47-5.75a5.05,5.05,0,0,0-4.71,3.52,4.27,4.27,0,0,0-.24,1.68V33.43h-3.52Z"/><path d="M232.54,24.4c.08,4.75,3.12,6.71,6.63,6.71a12.72,12.72,0,0,0,5.35-1l.6,2.52a15.66,15.66,0,0,1-6.43,1.2c-6,0-9.51-3.92-9.51-9.75s3.44-10.43,9.07-10.43c6.31,0,8,5.55,8,9.11a13.27,13.27,0,0,1-.12,1.64Zm10.31-2.52c0-2.24-.92-5.71-4.87-5.71-3.56,0-5.11,3.28-5.39,5.71Z"/><path d="M250.59,19.33c0-2,0-3.64-.16-5.23h3.08l.16,3.12h.12a6.66,6.66,0,0,1,6.07-3.56,5.72,5.72,0,0,1,5.47,3.88h.08A8,8,0,0,1,267.57,15a6.6,6.6,0,0,1,4.27-1.36c2.56,0,6.35,1.68,6.35,8.39V33.43h-3.44V22.49c0-3.72-1.36-6-4.19-6a4.55,4.55,0,0,0-4.15,3.2,5.78,5.78,0,0,0-.28,1.76V33.43H262.7V21.85c0-3.08-1.36-5.31-4-5.31A4.8,4.8,0,0,0,254.31,20a4.86,4.86,0,0,0-.28,1.72V33.43h-3.44Z"/><path d="M285.86,24.4c.08,4.75,3.12,6.71,6.63,6.71a12.72,12.72,0,0,0,5.35-1l.6,2.52a15.66,15.66,0,0,1-6.43,1.2c-6,0-9.51-3.92-9.51-9.75s3.44-10.43,9.07-10.43c6.31,0,8,5.55,8,9.11a13.27,13.27,0,0,1-.12,1.64Zm10.31-2.52c0-2.24-.92-5.71-4.87-5.71-3.56,0-5.11,3.28-5.39,5.71Z"/></svg>