<?xml version="1.0" encoding="utf-8"?>
<!-- Generator: Adobe Illustrator 20.1.0, SVG Export Plug-In . SVG Version: 6.00 Build 0)  -->
<svg version="1.1" id="Layer_1" xmlns="http://www.w3.org/2000/svg" xmlns:xlink="http://www.w3.org/1999/xlink" x="0px" y="0px"
	 viewBox="0 0 105.9 53.1" style="enable-background:new 0 0 105.9 53.1;" xml:space="preserve">
<g>
	<path d="M3.7,40V8h4v28.5h14.9V40H3.7z"/>
	<path d="M25.7,28.4c0-6.7,4.4-12.1,11.5-12.1s11.5,5.4,11.5,12.1c0,6.7-4.4,12.2-11.5,12.2S25.7,35.1,25.7,28.4z M44.9,28.4
		c0-4.7-2.7-8.9-7.7-8.9c-4.9,0-7.7,4.2-7.7,8.9c0,4.8,2.8,9,7.7,9C42.1,37.4,44.9,33.1,44.9,28.4z"/>
	<path d="M54.5,46l1.8-2.7c1.9,2.3,4.2,3.2,7.5,3.2c3.8,0,7.4-1.9,7.4-7v-3.3c-1.7,2.4-4.5,4.1-7.8,4.1c-6,0-10.3-4.5-10.3-12
		c0-7.4,4.2-12,10.3-12c3.1,0,5.9,1.5,7.8,4.1v-3.5h3.6v22.5c0,7.7-5.4,10.1-11,10.1C59.9,49.4,57.2,48.6,54.5,46z M71.3,33.3V23.2
		c-1.2-2-4-3.7-6.9-3.7c-4.7,0-7.4,3.7-7.4,8.8c0,5.1,2.8,8.8,7.4,8.8C67.2,37.1,70,35.4,71.3,33.3z"/>
	<path d="M80.7,28.4c0-6.7,4.4-12.1,11.5-12.1s11.5,5.4,11.5,12.1c0,6.7-4.4,12.2-11.5,12.2S80.7,35.1,80.7,28.4z M99.9,28.4
		c0-4.7-2.7-8.9-7.7-8.9s-7.7,4.2-7.7,8.9c0,4.8,2.8,9,7.7,9S99.9,33.1,99.9,28.4z"/>
</g>
</svg>
