<?xml version="1.0" encoding="UTF-8" standalone="no"?>
<svg width="156px" height="84px" viewBox="0 0 156 84" version="1.1" xmlns="http://www.w3.org/2000/svg" xmlns:xlink="http://www.w3.org/1999/xlink">
    <!-- Generator: Sketch 39.1 (31720) - http://www.bohemiancoding.com/sketch -->
    <title>logo</title>
    <desc>Created with Sketch.</desc>
    <defs>
        <polygon id="path-1" points="155.50275 40.6776904 155.50275 0.00327945205 0.000286764705 0.00327945205 0.000286764705 40.6776904 155.50275 40.6776904"></polygon>
    </defs>
    <g id="Symbols" stroke="none" stroke-width="1" fill="none" fill-rule="evenodd">
        <g id="Desktop-Nav" transform="translate(-103.000000, -26.000000)">
            <g id="nav">
                <g id="logo" transform="translate(103.000000, 26.000000)">
                    <path d="M17.6550706,61.4877123 C17.6550706,62.4600411 17.1973941,62.9162877 16.2304235,62.9162877 L14.5218794,62.9162877 L14.5218794,50.5188082 L16.2304235,50.5188082 C17.1973941,50.5188082 17.6550706,50.9779315 17.6550706,51.9485342 L17.6550706,61.4877123 Z M18.2234382,43.6653288 L6.54867353,43.6653288 L6.54867353,83.6533562 L14.5218794,83.6533562 L14.5218794,69.7720685 L18.2234382,69.7720685 C23.1793059,69.7720685 25.6265559,67.3153562 25.6265559,62.3478493 L25.6265559,51.0901233 C25.6265559,46.1203151 23.1793059,43.6653288 18.2234382,43.6653288 L18.2234382,43.6653288 Z" id="Fill-1" fill="#60C4B6"></path>
                    <path d="M39.5542015,60.2912301 C39.5542015,61.2595315 39.0993926,61.7175041 38.1301279,61.7175041 L36.1944662,61.7175041 L36.1944662,50.6358329 L38.1301279,50.6358329 C39.0993926,50.6358329 39.5542015,51.0903534 39.5542015,52.0603808 L39.5542015,60.2912301 Z M44.1091721,64.7426548 C46.2730985,63.9446548 47.5256868,62.2301342 47.5256868,58.8039699 L47.5256868,51.0903534 C47.5256868,46.1205452 45.0784368,43.6655589 40.1225691,43.6655589 L28.2201132,43.6655589 L28.2201132,83.6512849 L36.1944662,83.6512849 L36.1944662,68.5157507 L38.1880544,68.5157507 C39.1555985,68.5157507 39.6121279,68.9708466 39.6121279,69.9402986 L39.6121279,83.6512849 L47.5836132,83.6512849 L47.5836132,69.8856411 C47.5836132,66.9755589 46.5581426,65.430189 44.1091721,64.7426548 L44.1091721,64.7426548 Z" id="Fill-3" fill="#60C4B6"></path>
                    <path d="M62.2895382,75.712537 C62.2895382,76.6837151 61.8347294,77.1399616 60.8671853,77.1399616 L59.7287294,77.1399616 C58.7606118,77.1399616 58.3029353,76.6837151 58.3029353,75.712537 L58.3029353,51.6074137 C58.3029353,50.6362356 58.7606118,50.1776877 59.7287294,50.1776877 L60.8671853,50.1776877 C61.8347294,50.1776877 62.2895382,50.6362356 62.2895382,51.6074137 L62.2895382,75.712537 Z M70.2621706,76.5703726 L70.2621706,50.7495781 C70.2621706,45.7803452 67.8137735,43.3236329 62.8602,43.3236329 L57.7362882,43.3236329 C52.7809941,43.3236329 50.3308765,45.7803452 50.3308765,50.7495781 L50.3308765,76.5703726 C50.3308765,81.5401808 52.7809941,83.9968932 57.7362882,83.9968932 L62.8602,83.9968932 C67.8137735,83.9968932 70.2621706,81.5401808 70.2621706,76.5703726 L70.2621706,76.5703726 Z" id="Fill-5" fill="#60C4B6"></path>
                    <path d="M85.0019338,75.712537 C85.0019338,76.6837151 84.547125,77.1399616 83.5738456,77.1399616 L82.4348162,77.1399616 C81.4678456,77.1399616 81.0130368,76.6837151 81.0130368,75.712537 L81.0130368,51.6074137 C81.0130368,50.6362356 81.4678456,50.1776877 82.4348162,50.1776877 L83.5738456,50.1776877 C84.547125,50.1776877 85.0019338,50.6362356 85.0019338,51.6074137 L85.0019338,75.712537 Z M85.570875,43.3236329 L80.4446691,43.3236329 C75.4888015,43.3236329 73.0398309,45.7803452 73.0398309,50.7495781 L73.0398309,76.5703726 C73.0398309,81.5401808 75.4888015,83.9968932 80.4446691,83.9968932 L85.570875,83.9968932 C90.5221544,83.9968932 92.9728456,81.5401808 92.9728456,76.5703726 L92.9728456,50.7495781 C92.9728456,45.7803452 90.5221544,43.3236329 85.570875,43.3236329 L85.570875,43.3236329 Z" id="Fill-7" fill="#60C4B6"></path>
                    <polygon id="Fill-9" fill="#60C4B6" points="110.372753 50.8079178 110.372753 43.6656164 95.8521353 43.6656164 95.8521353 83.6530685 103.825341 83.6530685 103.825341 67.3156438 110.087709 67.3156438 110.087709 60.1739178 103.825341 60.1739178 103.825341 50.8079178"></polygon>
                    <g id="Group-13" transform="translate(0.000000, 0.572466)">
                        <mask id="mask-2" fill="white">
                            <use xlink:href="#path-1"></use>
                        </mask>
                        <g id="Clip-12"></g>
                        <path d="M137.145507,7.31933425 L139.084037,7.31933425 C140.051007,7.31933425 140.505243,7.77385479 140.505243,8.74503288 L140.505243,15.9005671 L137.145507,15.9005671 L137.145507,7.31933425 Z M62.6750074,27.5385945 L59.0852868,27.5385945 L59.4552132,23.6141836 L62.2895956,23.6141836 L62.6750074,27.5385945 Z M60.8500368,8.86988219 L61.5359779,15.9005671 L60.1853162,15.9005671 L60.8500368,8.86988219 Z M148.460096,15.9005671 C148.465257,15.7590329 148.480169,15.6330329 148.480169,15.4863205 L148.480169,7.77385479 C148.480169,2.80404658 146.030051,0.347334247 141.077625,0.347334247 L129.175743,0.347334247 L129.175743,15.9005671 L119.47736,15.9005671 L119.47736,7.4867589 L126.31211,7.4867589 L126.31211,0.347334247 L111.505875,0.347334247 L111.505875,15.9005671 L104.172728,15.9005671 L104.172728,7.4867589 L109.011596,7.4867589 L109.011596,0.347334247 L91.3583603,0.347334247 L91.3583603,7.4867589 L96.1989485,7.4867589 L96.1989485,15.9005671 L84.4054632,15.9005671 L84.4054632,7.4867589 L89.2471985,7.4867589 L89.2471985,0.347334247 L71.5945368,0.347334247 L71.5945368,7.4867589 L76.435125,7.4867589 L76.435125,15.9005671 L68.6964926,15.9005671 L66.6587426,0.347334247 L55.7823309,0.347334247 L53.7440074,15.9005671 L48.1738897,15.9005671 L48.1738897,0.347334247 L40.2052721,0.347334247 L40.2052721,15.9005671 L36.2169485,15.9005671 L36.2169485,0.347334247 L28.2471838,0.347334247 L28.2471838,15.9005671 L17.4120662,15.9005671 L15.5469485,14.5139918 C14.5794044,13.8304849 14.1808015,13.2016356 14.1808015,11.9433616 L14.1808015,8.17371781 C14.1808015,7.20369041 14.6356103,6.74514247 15.604875,6.74514247 L16.2300221,6.74514247 C17.1975662,6.74514247 17.6552426,7.20369041 17.6552426,8.17371781 L17.6552426,13.5548959 L25.4529485,13.5548959 L25.4529485,7.43152603 C25.4529485,2.46171781 23.0068456,0.00327945205 18.052125,0.00327945205 L13.7225515,0.00327945205 C8.77184559,0.00327945205 6.32230147,2.46171781 6.32230147,7.43152603 L6.32230147,13.773526 C6.32230147,14.568074 6.38653676,15.2642384 6.52131618,15.9005671 L0.000286764705,15.9005671 L0.000286764705,23.6141836 L14.2972279,23.6141836 L16.3447279,25.1376904 C17.3122721,25.8246493 17.7091544,26.454074 17.7091544,27.7111973 L17.7091544,32.5072521 C17.7091544,33.4801562 17.2543456,33.9387041 16.2879485,33.9387041 L15.5469485,33.9387041 C14.5794044,33.9387041 14.1234485,33.4801562 14.1234485,32.5072521 L14.1234485,25.9264849 L6.32230147,25.9264849 L6.32230147,33.2505945 C6.32230147,38.2209781 8.77184559,40.6776904 13.7225515,40.6776904 L18.1645368,40.6776904 C23.1186838,40.6776904 25.5688015,38.2209781 25.5688015,33.2505945 L25.5688015,25.8816082 C25.5688015,25.0139918 25.4936691,24.2792795 25.345125,23.6141836 L28.2471838,23.6141836 L28.2471838,40.3336356 L36.2169485,40.3336356 L36.2169485,23.6141836 L40.2052721,23.6141836 L40.2052721,40.3336356 L48.1738897,40.3336356 L48.1738897,23.6141836 L52.7340221,23.6141836 L50.5431397,40.3336356 L57.7747721,40.3336356 L58.3442868,34.5088685 L63.3540662,34.5088685 L63.9815074,40.3336356 L71.8990809,40.3336356 L69.7081985,23.6141836 L76.435125,23.6141836 L76.435125,40.3336356 L84.4054632,40.3336356 L84.4054632,23.6141836 L96.1989485,23.6141836 L96.1989485,40.3336356 L104.172728,40.3336356 L104.172728,23.6141836 L111.505875,23.6141836 L111.505875,40.3336356 L126.426243,40.3336356 L126.426243,33.194211 L119.47736,33.194211 L119.47736,23.6141836 L129.175743,23.6141836 L129.175743,40.3336356 L137.145507,40.3336356 L137.145507,25.1963753 L139.139669,25.1963753 C140.108934,25.1963753 140.563743,25.6549233 140.563743,26.6249507 L140.563743,40.3336356 L148.538096,40.3336356 L148.538096,26.5702932 C148.538096,25.3540192 148.345963,24.3897452 147.960551,23.6141836 L155.503037,23.6141836 L155.503037,15.9005671 L148.460096,15.9005671 Z" id="Fill-11" fill="#60C4B6" mask="url(#mask-2)"></path>
                    </g>
                    <polygon id="Fill-14" fill="#60C4B6" points="111.024168 83.6521479 111.024168 77.4948329 110.047447 77.4948329 110.047447 76.5052438 113.091741 76.5052438 113.091741 77.4948329 112.112726 77.4948329 112.112726 83.6521479"></polygon>
                    <polygon id="Fill-16" fill="#60C4B6" points="115.83866 81.5384548 116.531484 76.5053589 118.14769 76.5053589 118.14769 83.652263 117.080351 83.652263 117.080351 78.2906466 116.296337 83.652263 115.237601 83.652263 114.45416 78.2693589 114.45416 83.652263 113.517587 83.652263 113.517587 76.5053589 115.146984 76.5053589"></polygon>
                </g>
            </g>
        </g>
    </g>
</svg>